<?xml version="1.0" standalone="no"?><!DOCTYPE svg PUBLIC "-//W3C//DTD SVG 1.1//EN" "http://www.w3.org/Graphics/SVG/1.1/DTD/svg11.dtd"><svg t="1730037670907" class="icon" viewBox="0 0 1024 1024" version="1.1" xmlns="http://www.w3.org/2000/svg" p-id="5318" width="512" height="512" xmlns:xlink="http://www.w3.org/1999/xlink"><path d="M341.352 639.978c0-188.458 152.808-341.25 341.266-341.25 188.488 0 341.266 152.792 341.266 341.25s-152.778 341.234-341.266 341.234c-188.458 0-341.266-152.776-341.266-341.234z" fill="#4FC2E9" p-id="5319"></path><path d="M0.118 639.978c0-188.458 152.778-341.25 341.234-341.25 188.488 0 341.266 152.792 341.266 341.25S529.84 981.212 341.352 981.212C152.894 981.212 0.118 828.436 0.118 639.978z" fill="#EC87C0" p-id="5320"></path><path d="M512 344.39c-102.008 59.018-170.648 169.29-170.648 295.588 0 126.284 68.64 236.57 170.648 295.556 101.978-58.986 170.618-169.274 170.618-295.556 0-126.298-68.642-236.57-170.618-295.588z" fill="#5D9CEC" p-id="5321"></path><path d="M512 725.272c-188.488 0-341.264-152.778-341.264-341.218C170.734 195.58 323.512 42.788 512 42.788c188.458 0 341.236 152.792 341.236 341.266-0.002 188.44-152.778 341.218-341.236 341.218z" fill="#FFCE54" p-id="5322"></path><path d="M341.352 639.978c0 13.874 0.874 27.556 2.468 41.052 49.644 28.182 107.038 44.24 168.18 44.24 188.458 0 341.236-152.778 341.236-341.218 0-13.902-0.844-27.604-2.438-41.052-49.644-28.166-107.04-44.272-168.18-44.272-188.458 0-341.266 152.794-341.266 341.25z" fill="#A0D468" p-id="5323"></path><path d="M341.352 298.728c-61.142 0-118.504 16.106-168.15 44.272a342.356 342.356 0 0 0-2.468 41.052c0 188.442 152.778 341.218 341.264 341.218 61.142 0 118.536-16.058 168.15-44.24a343.31 343.31 0 0 0 2.468-41.052c0.002-188.456-152.776-341.25-341.264-341.25z" fill="#ED5564" p-id="5324"></path><path d="M521.684 725.146c2.562-0.062 5.124-0.188 7.688-0.312 0.282 0 0.562 0 0.876-0.062 2.312-0.124 4.592-0.25 6.902-0.438 0.624 0 1.282-0.062 1.906-0.124 2.468-0.188 4.938-0.376 7.406-0.624 0.5-0.062 1.032-0.124 1.532-0.188 2.092-0.25 4.154-0.438 6.214-0.688 0.656-0.124 1.312-0.188 1.968-0.25 2.376-0.312 4.75-0.688 7.094-1 0.688-0.124 1.406-0.25 2.094-0.312 1.874-0.31 3.716-0.624 5.56-0.936l2.154-0.376c2.25-0.438 4.468-0.876 6.718-1.312 0.844-0.124 1.688-0.312 2.532-0.5 1.686-0.376 3.342-0.75 4.998-1.124 0.782-0.124 1.56-0.312 2.342-0.5 2.124-0.5 4.218-1 6.312-1.562 1-0.25 1.968-0.5 2.968-0.75 1.468-0.376 2.936-0.812 4.404-1.188 1.344-0.376 2.716-0.748 4.06-1.186 1.5-0.376 2.968-0.812 4.438-1.312 1.094-0.312 2.218-0.688 3.312-1 1.25-0.438 2.532-0.812 3.78-1.25 1.718-0.562 3.436-1.124 5.154-1.75 1.094-0.376 2.156-0.75 3.25-1.124a455 455 0 0 0 3.624-1.31 50.946 50.946 0 0 0 3.032-1.188c1.998-0.75 3.998-1.5 5.996-2.312 0.812-0.376 1.656-0.688 2.468-1.062 1.312-0.5 2.624-1.062 3.906-1.624 0.532-0.25 1.062-0.438 1.594-0.688a304.106 304.106 0 0 0 7.28-3.248c0.688-0.312 1.342-0.624 2.03-0.938a435.786 435.786 0 0 0 12.716-6.374c0.562-0.25 1.124-0.562 1.688-0.876 2.81-1.5 5.592-3 8.374-4.562 0.032-0.062 0.062-0.062 0.094-0.062a343.31 343.31 0 0 0 2.468-41.052c0-126.298-68.64-236.57-170.618-295.588-102.008 59.018-170.648 169.29-170.648 295.588 0 13.874 0.874 27.556 2.468 41.052 0.124 0.062 0.282 0.124 0.406 0.188 2.656 1.5 5.342 3 8.06 4.438 0.562 0.312 1.156 0.624 1.718 0.938a319.822 319.822 0 0 0 12.684 6.248c0.686 0.376 1.374 0.688 2.062 1a1924.58 1924.58 0 0 0 7.092 3.186l1.782 0.75c1.282 0.562 2.562 1.124 3.874 1.624 0.844 0.376 1.688 0.688 2.53 1.062 1.938 0.812 3.938 1.562 5.906 2.312 1.032 0.376 2.032 0.812 3.062 1.188 1.218 0.438 2.438 0.876 3.656 1.31 1.062 0.376 2.156 0.75 3.25 1.124 1.686 0.624 3.406 1.188 5.124 1.75 1.25 0.438 2.53 0.812 3.812 1.25 1.092 0.376 2.186 0.688 3.312 1 1.468 0.5 2.936 0.938 4.436 1.376l4.03 1.124c1.468 0.376 2.936 0.812 4.436 1.188 0.968 0.25 1.968 0.5 2.968 0.75 2.062 0.562 4.186 1.062 6.28 1.562 0.78 0.188 1.562 0.376 2.342 0.5 1.688 0.376 3.342 0.75 5 1.124 0.844 0.188 1.718 0.376 2.562 0.5 2.218 0.438 4.468 0.876 6.686 1.312l2.156 0.376c1.844 0.312 3.718 0.624 5.592 0.936 0.688 0.062 1.376 0.188 2.062 0.312 2.376 0.312 4.718 0.688 7.092 1 0.656 0.062 1.342 0.124 2 0.25 2.062 0.25 4.124 0.438 6.186 0.688 0.532 0.062 1.032 0.124 1.562 0.188 2.468 0.25 4.904 0.438 7.404 0.624 0.624 0.062 1.25 0.124 1.874 0.124 2.312 0.188 4.624 0.312 6.936 0.438 0.282 0.062 0.594 0.062 0.874 0.062 2.562 0.124 5.124 0.25 7.686 0.312 0.624 0 1.218 0 1.842 0.062 2.594 0.062 5.218 0.062 7.842 0.062 2.626 0 5.218 0 7.812-0.062 0.626-0.064 1.25-0.064 1.876-0.064z" fill="#434A54" p-id="5325"></path></svg>
